:version 1.10
:name ASF
:units
  mass 1
  length 1
  angle deg
:documentation
  ASF file generated by Kaydara
:root
  axis xyz
  order  tx ty tz rx ry rz
  position 0 0 0
  orientation 0 0 0
:bonedata
  begin
    id 1
    name RightUpLegDummy
    direction -1 2.30186e-007 8.31532e-007
    length 4.46685
    axis 0 0 0 xyz
  end
  begin
    id 2
    name RightUpLeg
    direction -2.30187e-007 -1 1.24343e-010
    length 16.4045
    axis -3.49089 -0.000906625 0.000286804 xyz
    dof rx ry rz
  end
  begin
    id 3
    name RightLeg
    direction -2.30181e-007 -1 -4.17157e-009
    length 17.5097
    axis 3.68512 0.0193738 -0.131023 xyz
    dof rx ry rz
  end
  begin
    id 4
    name RightFoot
    direction 8.31421e-007 -4.51202e-011 1
    length 6.49508
    axis 4.81691e-005 -0.120479 -0.188788 xyz
    dof rx ry rz
  end
  begin
    id 5
    name RightToes
    direction 0.00124746 -0.014064 0.9999
    length 3.85082
    axis 0.000481921 0.542163 -0.142578 xyz
    dof rx ry rz
  end
  begin
    id 6
    name SpineDummy
    direction 0.0717043 0.9409 -0.331007
    length 10.0032
    axis 0 0 0 xyz
  end
  begin
    id 7
    name Spine
    direction 2.30186e-007 1 4.58806e-011
    length 9.84055
    axis -0.001389 0.000121418 2.40972e-006 xyz
    dof rx ry rz
  end
  begin
    id 8
    name Spine1
    direction 0 0 0
    length 0
    axis -0.001389 0.000121451 1.30017e-006 xyz
    dof rx ry rz
  end
  begin
    id 9
    name HEadDummy
    direction -0.00347485 0.950688 -0.310128
    length 8.00997
    axis -0.001389 0.000121451 1.30017e-006 xyz
  end
  begin
    id 10
    name HEad
    direction -0.0222688 0.980941 0.193023
    length 5.12695
    axis -0.001389 0.000121451 1.30017e-006 xyz
    dof rx ry rz
  end
  begin
    id 11
    name LeftShoulder1Dummy
    direction 0.988871 0.146793 -0.0242004
    length 3.5792
    axis -0.001389 0.000121451 1.30017e-006 xyz
  end
  begin
    id 12
    name LeftShoulder1
    direction 0.993832 0.108932 0.020779
    length 4.16823
    axis -0.001389 0.000121451 1.30017e-006 xyz
    dof rx ry rz
  end
  begin
    id 13
    name LeftArm
    direction 1 3.44807e-006 -8.31404e-007
    length 9.91437
    axis -23.1894 0.134784 0.967509 xyz
    dof rx ry rz
  end
  begin
    id 14
    name LeftForeArm
    direction 1 3.44842e-006 -8.31581e-007
    length 9.08575
    axis -9.91835 -0.06569 -0.177793 xyz
    dof rx ry rz
  end
  begin
    id 15
    name LeftHand
    direction 0.992938 -0.0411636 0.11126
    length 5.32135
    axis -0.00960232 -0.00340091 0.185173 xyz
    dof rx ry rz
  end
  begin
    id 16
    name RightShoulderDummy
    direction -0.988871 0.146793 -0.0241962
    length 3.5792
    axis -0.001389 0.000121451 1.30017e-006 xyz
  end
  begin
    id 17
    name RightShoulder
    direction -0.993832 0.108933 0.0207785
    length 4.16823
    axis 0.215806 0.000203643 -0.0068026 xyz
    dof rx ry rz
  end
  begin
    id 18
    name RightArm
    direction -1 3.90912e-006 8.31284e-007
    length 9.91437
    axis -23.2009 -0.134239 -0.964101 xyz
    dof rx ry rz
  end
  begin
    id 19
    name RightForeArm
    direction -1 3.90882e-006 8.31502e-007
    length 9.08575
    axis -9.92322 0.0658061 0.178867 xyz
    dof rx ry rz
  end
  begin
    id 20
    name RightHand
    direction -0.992843 -0.0414603 0.112003
    length 5.28593
    axis -0.00960638 0.00330671 -0.185228 xyz
    dof rx ry rz
  end
  begin
    id 21
    name LeftUpLegDummy
    direction 1 -2.30186e-007 -8.31532e-007
    length 4.46685
    axis 0 0 0 xyz
  end
  begin
    id 22
    name LeftUpLeg
    direction -2.30187e-007 -1 6.00931e-010
    length 16.4045
    axis -3.48766 0.00143442 -0.000524262 xyz
    dof rx ry rz
  end
  begin
    id 23
    name LeftLeg
    direction -2.30187e-007 -1 1.6669e-009
    length 17.5097
    axis 3.68178 -0.00654042 -0.000285133 xyz
    dof rx ry rz
  end
  begin
    id 24
    name LeftFoot
    direction 8.31532e-007 -4.54478e-011 1
    length 6.49508
    axis 1.87233e-006 4.66016e-005 -8.6538e-006 xyz
    dof rx ry rz
  end
  begin
    id 25
    name LeftToes
    direction 0.00818058 -0.00485161 0.999955
    length 3.85048
    axis 1.06247e-005 4.65869e-005 -8.65513e-006 xyz
    dof rx ry rz
  end
:hierarchy
  begin
    root RightUpLegDummy SpineDummy LeftUpLegDummy
    RightUpLegDummy RightUpLeg
    RightUpLeg RightLeg
    RightLeg RightFoot
    RightFoot RightToes
    SpineDummy Spine
    Spine Spine1
    Spine1 HEadDummy LeftShoulder1Dummy RightShoulderDummy
    HEadDummy HEad
    LeftShoulder1Dummy LeftShoulder1
    LeftShoulder1 LeftArm
    LeftArm LeftForeArm
    LeftForeArm LeftHand
    RightShoulderDummy RightShoulder
    RightShoulder RightArm
    RightArm RightForeArm
    RightForeArm RightHand
    LeftUpLegDummy LeftUpLeg
    LeftUpLeg LeftLeg
    LeftLeg LeftFoot
    LeftFoot LeftToes
  end

:SAMPLES-PER-SECOND 30
:FULLY-SPECIFIED
:DEGREES
153
root  48.2814 32.9182 32.7108 -179.664 -57.8322 -176.639
RightUpLeg  -2.95128 -10.3087 -3.81648
RightLeg  24.6796 -9.20563 -3.51498
RightFoot  -7.59209 0.0719561 1.46214
RightToes  -33.9009 -0.171685 -0.278143
Spine  6.56372 -0.471107 -1.85
Spine1  10.5154 -1.21826 -2.6732
HEad  7.19806 2.85072 9.79076
LeftShoulder1  0 -2.42657e-020 -4.95415e-022
LeftArm  -22.4991 -46.6623 -68.1332
LeftForeArm  11.4667 -44.59 -10.0129
LeftHand  -0.0944989 -3.2571 2.95921
RightShoulder  0 2.42657e-020 1.07489e-018
RightArm  -8.69351 54.7532 83.2071
RightForeArm  20.8987 42.8763 9.43412
RightHand  -1.7868 16.8058 -11.6867
LeftUpLeg  -22.1827 -4.11602 1.88779
LeftLeg  35.7427 0.676075 0.41884
LeftFoot  -5.66131 -0.00322267 -0.0651867
LeftToes  -16.5675 3.33339e-006 -4.73431e-007
154
root  48.8052 32.6733 32.6173 179.439 -59.7162 -175.727
RightUpLeg  -3.97118 -12.3958 -3.02673
RightLeg  27.2199 -8.26459 -3.58655
RightFoot  -9.94103 0.119632 1.75316
RightToes  -32.9106 -0.164469 -0.271678
Spine  6.86807 -0.381434 -2.19356
Spine1  11.0478 -1.1135 -3.12806
HEad  7.63916 1.74492 11.39
LeftShoulder1  0 -2.42657e-020 -4.95415e-022
LeftArm  -21.2939 -46.7226 -70.1883
LeftForeArm  6.23331 -44.8159 -10.0865
LeftHand  -0.040054 -1.84467 2.12564
RightShoulder  0 2.42657e-020 1.07489e-018
RightArm  -5.50906 52.0868 87.2377
RightForeArm  21.2297 45.061 10.1937
RightHand  -2.21863 14.1684 -17.3499
LeftUpLeg  -24.5687 -4.82004 2.88916
LeftLeg  38.4471 -0.241556 -0.172727
LeftFoot  -5.75603 0.001579 0.0313993
LeftToes  -17.7547 3.33339e-006 -4.73431e-007
155
root  49.3413 32.4251 32.4827 178.46 -61.9229 -175.109
RightUpLeg  -4.73871 -14.9616 -2.49966
RightLeg  29.6676 -7.37247 -3.58516
RightFoot  -12.3678 0.17328 1.97681
RightToes  -32.0775 -0.158485 -0.266143
Spine  6.8844 -0.0704657 -2.26298
Spine1  11.2935 -0.518001 -3.24182
HEad  7.8736 0.109852 11.7879
LeftShoulder1  0 -2.42657e-020 -4.95415e-022
LeftArm  -19.5706 -41.6399 -73.031
LeftForeArm  5.26127 -49.8696 -12.0768
LeftHand  -0.0154244 -1.35712 0.937168
RightShoulder  0 2.42657e-020 1.07489e-018
RightArm  -1.89612 44.5977 87.9371
RightForeArm  24.5735 53.4957 13.8268
RightHand  -2.67118 11.3811 -25.9819
LeftUpLeg  -26.3417 -5.87768 3.71757
LeftLeg  40.4282 -1.19173 -0.895066
LeftFoot  -5.66157 0.00722791 0.146166
LeftToes  -19.261 3.33339e-006 -4.73431e-007
156
root  49.8099 32.182 32.2724 176.975 -64.4017 -174.028
RightUpLeg  -5.23372 -17.938 -1.87628
RightLeg  31.7461 -6.76082 -3.60007
RightFoot  -14.3594 0.224713 2.16138
RightToes  -31.2384 -0.152541 -0.26048
Spine  7.09701 0.393394 -2.39052
Spine1  11.8538 0.972865 -3.95947
HEad  8.90486 -1.25018 11.6779
LeftShoulder1  0 -2.42657e-020 -4.95415e-022
LeftArm  -17.3744 -30.6488 -74.2681
LeftForeArm  6.56217 -63.5538 -20.8135
LeftHand  0.00597288 -0.829382 -1.20533
RightShoulder  0 2.42657e-020 1.07489e-018
RightArm  2.18329 33.2492 86.7826
RightForeArm  41.8095 64.8614 22.1962
RightHand  -3.54191 11.6134 -33.4699
LeftUpLeg  -27.9723 -7.25807 4.68373
LeftLeg  42.3649 -2.04624 -1.64334
LeftFoot  -5.59153 0.0155451 0.318315
LeftToes  -20.7166 3.33339e-006 -4.73431e-007
157
root  50.2118 31.9678 31.9753 174.824 -66.083 -172.455
RightUpLeg  -5.58262 -20.0447 -1.01645
RightLeg  33.8223 -6.32278 -3.66993
RightFoot  -15.8082 0.263618 2.27628
RightToes  -30.4095 -0.146751 -0.254802
Spine  7.38096 1.04309 -2.66585
Spine1  12.6129 2.41504 -4.52411
HEad  10.144 -3.44835 12.5643
LeftShoulder1  0 -2.42657e-020 -4.95415e-022
LeftArm  -14.518 -16.7461 -73.5401
LeftForeArm  34.0014 -76.6122 -48.2182
LeftHand  0.124405 -2.70106 -5.65761
RightShoulder  0 2.42657e-020 1.07489e-018
RightArm  9.55969 21.6147 85.0821
RightForeArm  63.636 72.6808 34.6992
RightHand  -4.4174 12.8069 -37.5789
LeftUpLeg  -28.981 -8.59797 5.89289
LeftLeg  44.0364 -2.39095 -2.03626
LeftFoot  -5.79837 0.020069 0.396268
LeftToes  -21.992 3.33339e-006 -4.73431e-007
158
root  50.6372 31.7663 31.6416 172.152 -67.7925 -170.701
RightUpLeg  -5.60625 -21.0424 0.0560395
RightLeg  35.7225 -6.76797 -4.23164
RightFoot  -17.232 0.344168 2.64879
RightToes  -28.5243 -0.133892 -0.24158
Spine  7.67514 1.93423 -2.8719
Spine1  13.5463 4.24341 -4.79016
HEad  10.7656 -6.94529 14.1932
LeftShoulder1  0 -2.42657e-020 -4.95415e-022
LeftArm  -11.3472 -2.29939 -72.8121
LeftForeArm  93.0715 -79.7108 -100.977
LeftHand  0.0270933 -2.88797 -1.4482
RightShoulder  0 2.42657e-020 1.07489e-018
RightArm  19.4843 11.3534 83.1776
RightForeArm  83.3555 75.3938 42.9005
RightHand  -5.06125 10.6822 -50.2605
LeftUpLeg  -29.6076 -9.43126 7.08518
LeftLeg  45.4729 -3.24471 -2.90258
LeftFoot  -5.91143 0.027094 0.52473
LeftToes  -23.3589 3.33339e-006 -4.73431e-007
159
root  51.1344 31.5889 31.3033 167.617 -70.4807 -166.749
RightUpLeg  -5.41639 -22.7059 1.82275
RightLeg  36.5329 -7.68183 -4.94707
RightFoot  -18.5533 0.457964 3.18091
RightToes  -25.9186 -0.11685 -0.222623
Spine  8.22111 2.64394 -2.73003
Spine1  15.0368 5.70701 -4.53762
HEad  9.41022 -10.4049 16.1801
LeftShoulder1  0 -2.42657e-020 -4.95415e-022
LeftArm  -12.1103 7.92927 -72.6518
LeftForeArm  114.527 -77.9086 -123.574
LeftHand  0.0896055 -5.00708 -2.4225
RightShoulder  0 2.42657e-020 1.07489e-018
RightArm  23.2672 2.7638 83.0522
RightForeArm  96.2174 77.398 52.5294
RightHand  -5.73287 11.5827 -52.2043
LeftUpLeg  -30.9805 -10.477 8.83363
LeftLeg  46.9369 -4.91125 -4.61195
LeftFoot  -5.47512 0.0343517 0.718398
LeftToes  -25.764 3.33339e-006 -4.73431e-007
160
root  51.5772 31.4549 31.0463 160.4 -74.4864 -160.811
RightUpLeg  -3.97369 -25.9142 2.52879
RightLeg  36.6018 -8.26634 -5.33146
RightFoot  -19.7073 0.557882 3.58872
RightToes  -23.9971 -0.104843 -0.208157
Spine  8.92078 2.85365 -2.48542
Spine1  16.667 6.10519 -4.00698
HEad  8.75039 -14.5152 18.8266
LeftShoulder1  0 -2.42657e-020 -4.95415e-022
LeftArm  -10.4313 12.9423 -71.5856
LeftForeArm  118.749 -77.467 -126.559
LeftHand  0.0666085 -5.62926 -1.72683
RightShoulder  0 2.42657e-020 1.07489e-018
RightArm  24.9824 -2.04473 83.5856
RightForeArm  95.0503 77.339 52.1802
RightHand  -5.76096 11.3906 -53.1999
LeftUpLeg  -31.8065 -12.9596 9.86756
LeftLeg  47.7132 -6.34608 -6.1062
LeftFoot  -4.53176 0.0304536 0.769638
LeftToes  -28.5023 3.33339e-006 -4.73431e-007
161
root  52.017 31.341 30.8585 149.492 -78.4175 -151.228
RightUpLeg  -2.80214 -29.6463 2.76705
RightLeg  37.07 -8.84709 -5.80172
RightFoot  -20.4834 0.651562 3.98271
RightToes  -22.746 -0.0972897 -0.198526
Spine  9.67059 2.7877 -2.19586
Spine1  18.2518 5.91721 -3.33226
HEad  8.65678 -17.8691 21.7071
LeftShoulder1  0 -2.42657e-020 -4.95415e-022
LeftArm  -8.08904 14.6278 -71.048
LeftForeArm  117.889 -77.7984 -124.341
LeftHand  0.0234207 -5.76388 -0.836185
RightShoulder  0 2.42657e-020 1.07489e-018
RightArm  25.7969 -4.1821 83.1096
RightForeArm  93.1659 77.1386 51.01
RightHand  -5.59372 10.5747 -55.3173
LeftUpLeg  -32.5153 -15.6801 10.454
LeftLeg  47.9806 -7.52799 -7.29216
LeftFoot  -3.37053 0.0201574 0.685097
LeftToes  -30.898 3.33339e-006 -4.73431e-007
162
root  52.4485 31.274 30.7767 136.321 -81.347 -138.854
RightUpLeg  -2.41894 -32.3344 2.80012
RightLeg  37.4172 -9.18269 -6.09697
RightFoot  -21.3256 0.738436 4.29823
RightToes  -21.1543 -0.0879866 -0.186038
Spine  10.1786 2.59327 -2.02744
Spine1  19.265 5.49953 -2.93773
HEad  9.78963 -20.7598 23.8645
LeftShoulder1  0 -2.42657e-020 -4.95415e-022
LeftArm  -6.08799 14.3075 -71.3185
LeftForeArm  112.27 -78.4731 -118.949
LeftHand  -0.0134102 -5.51323 -0.0915446
RightShoulder  0 2.42657e-020 1.07489e-018
RightArm  26.0279 -5.33787 81.4
RightForeArm  95.4467 77.5865 53.7528
RightHand  -5.51422 10.2637 -56.0635
LeftUpLeg  -33.4316 -18.447 10.7283
LeftLeg  47.8332 -8.24018 -7.92802
LeftFoot  -1.87966 0.00712434 0.434278
LeftToes  -32.271 3.33339e-006 -4.73431e-007
163
root  52.8863 31.267 30.75 123.501 -82.8622 -126.384
RightUpLeg  -2.96702 -33.6232 3.29619
RightLeg  37.8585 -9.74003 -6.56696
RightFoot  -21.7552 0.821151 4.64896
RightToes  -19.343 -0.0778268 -0.171519
Spine  10.3887 2.38485 -1.93611
Spine1  19.6548 5.07478 -2.74401
HEad  11.1867 -22.7102 25.902
LeftShoulder1  0 -2.42657e-020 -4.95415e-022
LeftArm  -3.60592 12.6453 -71.7232
LeftForeArm  102.119 -79.3618 -108.306
LeftHand  -0.0303877 -5.04129 0.320767
RightShoulder  0 2.42657e-020 1.07489e-018
RightArm  25.7354 -6.1395 79.224
RightForeArm  98.474 78.2009 58.2385
RightHand  -5.33374 9.95846 -55.9221
LeftUpLeg  -34.1939 -20.1762 10.9388
LeftLeg  47.1529 -8.09505 -7.61036
LeftFoot  -0.62122 0.000882052 0.162694
LeftToes  -31.7226 3.33339e-006 -4.73431e-007
